<?xml version="1.0" standalone="no"?>
<!DOCTYPE svg PUBLIC "-//W3C//DTD SVG 1.1//EN" "http://www.w3.org/Graphics/SVG/1.1/DTD/svg11.dtd" >
<!--
2013-9-30: Created.
-->
<svg>
<metadata>
Created by iconfont
</metadata>
<defs>

<font id="iconfont" horiz-adv-x="1024" >
  <font-face
    font-family="iconfont"
    font-weight="500"
    font-stretch="normal"
    units-per-em="1024"
    ascent="896"
    descent="-128"
  />
    <missing-glyph />
    
    <glyph glyph-name="x" unicode="x" horiz-adv-x="1001"
d="M281 543q-27 -1 -53 -1h-83q-18 0 -36.5 -6t-32.5 -18.5t-23 -32t-9 -45.5v-76h912v41q0 16 -0.5 30t-0.5 18q0 13 -5 29t-17 29.5t-31.5 22.5t-49.5 9h-133v-97h-438v97zM955 310v-52q0 -23 0.5 -52t0.5 -58t-10.5 -47.5t-26 -30t-33 -16t-31.5 -4.5q-14 -1 -29.5 -0.5
t-29.5 0.5h-32l-45 128h-439l-44 -128h-29h-34q-20 0 -45 1q-25 0 -41 9.5t-25.5 23t-13.5 29.5t-4 30v167h911zM163 247q-12 0 -21 -8.5t-9 -21.5t9 -21.5t21 -8.5q13 0 22 8.5t9 21.5t-9 21.5t-22 8.5zM316 123q-8 -26 -14 -48q-5 -19 -10.5 -37t-7.5 -25t-3 -15t1 -14.5
t9.5 -10.5t21.5 -4h37h67h81h80h64h36q23 0 34 12t2 38q-5 13 -9.5 30.5t-9.5 34.5q-5 19 -11 39h-368zM336 498v228q0 11 2.5 23t10 21.5t20.5 15.5t34 6h188q31 0 51.5 -14.5t20.5 -52.5v-227h-327z" />
    

    
    <glyph glyph-name="dianjiguanzhu" unicode="&#58881;" d="M512.694 893.642c-281.851 0-510.335-228.485-510.335-510.335 0-281.853 228.485-510.338 510.335-510.338 281.853 0 510.338 228.485 510.338 510.338-0.002 281.851-228.487 510.335-510.338 510.335zM768.797 310.399l-183.498 0.005v-182.273c0-20.118-16.177-36.444-36.3-36.45l-73.38 0.005c-20.131-0.005-36.919 16.327-36.919 36.45v182.268l-182.214-0.005c-20.133 0-36.401 16.321-36.401 36.454v72.907c0 20.131 17.311 37.54 37.44 37.54h181.174v181.172c0 20.135 17.411 37.442 37.546 37.442h72.901c20.133 0 36.452-16.27 36.457-36.405l-0.011-182.208h182.262c20.133 0 38.629-17.411 38.629-37.542v-72.909c0-20.125-17.562-36.45-37.689-36.45z"  horiz-adv-x="1024" />

    
    <glyph glyph-name="chenggong1" unicode="&#58885;" d="M1008.799 744.87c-21.324 21.467-55.908 21.467-77.234 0l-553.724-557.659-280.656 282.637c-21.326 21.468-55.909 21.468-77.236 0-21.326-21.468-21.326-56.287 0-77.778l347.564-350.017c3.734-3.761 6.688-5.668 9.138-6.146 0.132-0.030 0.267-0.048 0.402-0.067 0.046-0.005 0.091-0.015 0.135-0.020 0.146-0.017 0.294-0.025 0.445-0.029 0.069-0.003 0.141-0.010 0.209-0.010s0.14 0.005 0.209 0.010c0.15 0.004 0.3 0.012 0.445 0.029 0.045 0.005 0.091 0.015 0.135 0.020 0.135 0.019 0.271 0.037 0.402 0.067 2.451 0.478 5.405 2.384 9.138 6.146l620.625 625.014c21.326 21.492 21.326 56.313 0 77.805z"  horiz-adv-x="1024" />

    
    <glyph glyph-name="iconfontroundcheck" unicode="&#58913;" d="M512-125.72444444444443C230.92337777777777-125.72444444444443 2.27555555555557 102.92337777777789 2.27555555555557 384S230.92337777777777 893.7244444444444 512 893.7244444444444s509.72444444444443-228.64782222222223 509.72444444444443-509.72444444444443S793.0766222222221-125.72444444444443 512-125.72444444444443zM512 820.5789866666667C271.2644266666666 820.5789866666667 75.42101333333335 624.7355733333334 75.42101333333335 384c0-240.69916444444442 195.84341333333333-436.57898666666665 436.57898666666665-436.57898666666665 240.69916444444442 0 436.57898666666665 195.8798222222222 436.57898666666665 436.57898666666665C948.5789866666667 624.7355733333334 752.6991644444445 820.5789866666667 512 820.5789866666667zM756.5949155555555 519.1862044444445c-14.272284444444445 14.163057777777777-37.35552 14.017422222222223-51.482168888888886-0.29127111111111115l-265.4208-268.33351111111114-117.49148444444444 120.73187555555555c-14.05383111111111 14.454328888888888-37.100657777777776 14.70919111111111-51.482168888888886 0.7281777777777777-14.41792-14.017422222222223-14.7456-37.100657777777776-0.7281777777777777-51.482168888888886l143.37820444444444-147.34677333333332c0.07281777777777779-0.10922666666666667 0.21845333333333333-0.10922666666666667 0.29127111111111115-0.21845333333333333 0.07281777777777779-0.07281777777777779 0.10922666666666667-0.21845333333333333 0.18204444444444443-0.29127111111111115 2.29376-2.2573511111111113 5.133653333333332-3.640888888888889 7.827911111111111-5.170062222222221 1.4199466666666667-0.7645866666666666 2.5486222222222223-2.0388977777777777 4.0049777777777775-2.6214399999999998 4.405475555555555-1.8204444444444445 9.102222222222222-2.7306666666666666 13.76256-2.7306666666666666 4.623928888888889 0 9.247857777777778 0.9102222222222223 13.616924444444443 2.6578488888888887 1.4199466666666667 0.5825422222222223 2.5122133333333334 1.7476266666666667 3.8593422222222222 2.4758044444444445 2.7306666666666666 1.5291733333333333 5.5705599999999995 2.8763022222222223 7.900728888888889 5.170062222222221 0.07281777777777779 0.07281777777777779 0.10922666666666667 0.21845333333333333 0.21845333333333333 0.29127111111111115 0.07281777777777779 0.10922666666666667 0.18204444444444443 0.14563555555555557 0.29127111111111115 0.21845333333333333l291.5259733333333 294.69354666666663C771.0128355555556 482.0127288888889 770.8671999999999 505.05955555555556 756.5949155555555 519.1862044444445z"  horiz-adv-x="1024" />

    
    <glyph glyph-name="iconfontxiangxiajiantoujian" unicode="&#58942;" d="M512-128c-282.752 0-512 229.248-512 512 0 282.784 229.248 512 512 512 282.784 0 512-229.216 512-512 0-282.752-229.216-512-512-512zM512 640l-256-256h192v-256h128v256h192l-256 256z"  horiz-adv-x="1024" />

    
    <glyph glyph-name="dianzan" unicode="&#58882;" d="M932.067 562.327c-39.835 10.464-133.615 10.34-270.718 13.953 6.509 29.932 7.974 56.903 7.974 104.805 0 114.43-83.346 215.216-157.1 215.216-52.076 0-95.026-42.576-95.679-94.947-0.716-64.206-20.556-175.149-127.573-231.396-7.849-4.143-30.305-15.2-33.574-16.663l1.682-1.433c-16.756 14.436-39.959 25.509-63.786 25.509h-95.679c-52.759 0-95.679-42.933-95.679-95.679v-510.307c0-52.759 42.919-95.679 95.679-95.679h95.679c37.967 0 69.703 22.923 85.090 55.065 0.373-0.124 1.058-0.311 1.495-0.373 2.117-0.56 4.579-1.184 7.631-1.994 0.56-0.123 0.871-0.187 1.463-0.373 18.377-4.546 53.726-13.020 129.317-30.397 16.227-3.675 101.783-21.926 190.518-21.926h174.321c53.166 0 92.566 19.824 114.243 61.482 21.184 37.083 125.247 235.689 125.143 515.601-0.014 40.285-27.875 91.661-90.448 109.538zM225.185-28.617c0-17.629-14.266-31.893-31.893-31.893h-95.679c-17.629 0-31.893 14.266-31.893 31.893v510.307c0 17.629 14.266 31.877 31.893 31.877h95.679c17.629 0 31.893-14.249 31.893-31.877v-510.307zM958.013 432.73c-13.298-320.535-116.828-465.394-116.828-465.394-9.654-17.379-25.166-27.843-58.055-27.843h-174.321c-87.614 0-174.479 19.871-176.722 20.37-132.493 30.523-139.471 32.889-147.786 35.257l4.673 468.603c0 48.479 1.090 36.238 0 35.631 145.7 60.33 190.050 192.636 191.359 301.273 0.188 15.261 11.959 31.893 31.893 31.893 33.73 0 93.313-67.68 93.313-151.43 0-75.622-3.021-88.703-29.525-167.517 318.931 0 316.689-4.562 344.846-11.945 34.883-9.967 37.872-38.87 37.872-48.837-0.001-10.932-0.31-9.343-0.717-20.057z"  horiz-adv-x="1024" />

    
    <glyph glyph-name="biaoqing1" unicode="&#58892;" d="M512-128c-282.329 0-512 229.673-512 512.004 0 282.325 229.704 511.996 512 511.996 282.296 0 512-229.671 512-511.998 0-282.329-229.673-512.002-512-512.002v0zM512 822.86c-241.994 0-438.858-196.864-438.858-438.856 0-241.998 196.864-438.862 438.858-438.862 241.998 0 438.862 196.864 438.862 438.862-0.002 241.992-196.866 438.856-438.862 438.856v0zM513.206 85.322c-101.925 0-196.461 46.082-259.328 126.427-12.433 15.911-9.654 38.877 6.257 51.311 15.87 12.472 38.873 9.695 51.345-6.255 48.896-62.501 122.438-98.337 201.728-98.337 80.128 0 154.145 36.456 203.041 100.055 12.329 16.017 35.256 19.055 51.272 6.728 16.019-12.327 19.057-35.289 6.732-51.272-62.865-81.77-158.024-128.657-261.046-128.657v0zM348.631 380.342c-30.312 0-54.854 24.543-54.854 54.862v73.14c0 30.321 24.541 54.856 54.854 54.856 30.321 0 54.862-24.535 54.862-54.856v-73.14c0-30.286-24.576-54.862-54.862-54.862v0zM677.775 380.342c-30.284 0-54.856 24.543-54.856 54.862v73.14c0 30.321 24.572 54.856 54.856 54.856 30.28 0 54.856-24.535 54.856-54.856v-73.14c0-30.286-24.576-54.862-54.856-54.862v0zM677.775 380.342z"  horiz-adv-x="1024" />

    
    <glyph glyph-name="androidcamera" unicode="&#59097;" d="M512 332.79999999999995m-134.4 0a67.2 67.2 0 1 1 268.8 0 67.2 67.2 0 1 1-268.8 0ZM904.53333333 725.33333333l-187.73333333 0-68.26666667 68.26666667L375.46666667 793.6l-68.26666667-68.26666667L119.46666667 725.33333333c-47.1296 0-85.33333333-38.20373333-85.33333334-85.33333333l0-580.26666667c0-47.1296 38.20373333-85.33333333 85.33333334-85.33333333l785.06666666 0c47.1296 0 85.33333333 38.20373333 85.33333334 85.33333333L989.86666667 640C989.86666667 687.1296 951.66293333 725.33333333 904.53333333 725.33333333zM512 93.86666666999997c-131.95733333 0-238.93333333 106.976-238.93333333 238.93333333s106.976 238.93333333 238.93333333 238.93333333 238.93333333-106.976 238.93333333-238.93333333S643.95733333 93.86666666999997 512 93.86666666999997z"  horiz-adv-x="1024" />

    
    <glyph glyph-name="shouqixin" unicode="&#58939;" d="M80.09816 95.69478900000001l-78.527607 66.180973 510.429448 510.429448 510.429448-510.429448-78.527607-66.180973-431.90184 419.555207L80.09816 95.69478900000001z"  horiz-adv-x="1024" />

    
    <glyph glyph-name="3" unicode="&#58888;" d="M498.0736-59.73333333000005c-262.48533333 0-476.09173333 213.6064-476.09173333 476.09173333s213.6064 476.09173333 476.09173333 476.09173333 476.09173333-213.6064 476.09173333-476.09173333C974.2336 153.87306666999996 760.6272-59.73333333000005 498.0736-59.73333333000005M498.0736 855.8592c-242.34666667 0-439.5008-197.15413333-439.5008-439.5008 0-242.2784 197.15413333-439.5008 439.5008-439.5008s439.5008 197.15413333 439.5008 439.5008S740.42026667 855.8592 498.0736 855.8592M344.7201856 232.29193599999996l-30.6523136 30.6523136 337.46507733 337.46507733 30.6523136-30.6523136-337.46507733-337.46507733ZM682.12641067 262.97085227l-30.6523136-30.6523136-337.46507734 337.46507733 30.6523136 30.6523136 337.46507734-337.46507733Z"  horiz-adv-x="1024" />

    
    <glyph glyph-name="0039" unicode="&#58952;" d="M910.026 723.537c0 94.32-70.331 172.463-157.916 172.463h-480.219c-87.585 0-157.916-78.143-157.916-172.463v-679.074c0-94.32 70.331-172.463 157.916-172.463h480.219c87.585 0 157.916 78.143 157.916 172.463v679.074zM856.131 44.463c0-65.747-47.541-118.568-104.022-118.568h-480.219c-56.48 0-104.022 52.822-104.022 118.568v679.074c0 65.747 47.541 118.568 104.022 118.568h480.219c56.48 0 104.022-52.822 104.022-118.568v-679.074zM187.634 87.579h674.682v53.895h-700.632v-53.895h25.949zM437.146-20.211h155.696v53.895h-161.684v-53.895h5.988z"  horiz-adv-x="1024" />

    
    <glyph glyph-name="mima" unicode="&#58985;" d="M522.368 885.606c-144.154 0-252.902-114.662-252.902-266.752v-93.747h-8.192c-75.776 0-137.446-63.309-137.446-141.082v-360.525c0-77.773 61.67-141.107 137.446-141.107h524.339c75.776 0 137.446 63.334 137.446 141.107l-0 360.525c0 77.773-61.67 141.082-137.446 141.082h-4.506c-1.203 0.435-2.458 0.563-3.712 0.768v93.005c0.051 152.038-109.594 266.726-255.027 266.726v0zM522.368 843.776c123.52 0 213.248-94.592 213.248-224.947v-92.365h-424.294v92.365c0 130.355 88.755 224.947 211.046 224.947v0zM881.28 384.026v-360.525c0-54.733-42.931-99.277-95.616-99.277h-524.365c-52.736 0-95.616 44.544-95.616 99.277v360.525c0 54.707 42.88 99.251 95.616 99.251h50.022v1.382h424.269v-1.382h50.048c52.71-0.026 95.642-44.544 95.642-99.251v0zM518.861 327.962c-33.51 0-60.672-28.006-60.672-62.566 0-23.117 12.237-43.341 30.336-54.17v-102.195c0-17.254 13.568-31.309 30.336-31.309 16.742 0 30.336 14.054 30.336 31.309v102.17c18.099 10.829 30.31 31.027 30.31 54.17-0.051 34.56-27.187 62.592-60.646 62.592v0zM518.861 327.962z"  horiz-adv-x="1024" />

    
    <glyph glyph-name="next-copy" unicode="&#58895;" d="M1019.891 545.948l-72.133 72.854-436.459-433.487-432.784 437.127-72.734-72.239 504.923-509.974z"  horiz-adv-x="1024" />

    
    <glyph glyph-name="more" unicode="&#58966;" d="M294.819 891.89l-72.854-72.131 433.486-436.459-437.13-432.784 72.238-72.733 509.975 504.922z"  horiz-adv-x="1024" />

    
    <glyph glyph-name="xiangmujianjie" unicode="&#58962;" d="M789.014-126.861h-551.75c-52.613 0-102.111 20.537-139.36 57.738-37.202 37.165-57.696 86.669-57.696 139.317v630.578c0 52.613 20.494 102.111 57.696 139.36 37.249 37.201 86.746 57.696 139.36 57.696h551.75c52.656 0 102.155-20.495 139.319-57.696 37.205-37.249 57.735-86.746 57.735-139.36v-630.578c0-52.65-20.531-102.154-57.735-139.353-37.166-37.166-86.663-57.701-139.319-57.701v0zM237.265 819.006c-31.566 0-61.285-12.299-83.631-34.644-22.304-22.304-34.604-52.023-34.604-83.589v-630.578c0-31.607 12.299-61.279 34.604-83.588 22.345-22.347 52.066-34.639 83.631-34.639h551.75c31.609 0 61.286 12.291 83.555 34.639 22.382 22.31 34.679 51.982 34.679 83.588v630.578c0 31.566-12.334 61.285-34.639 83.631-22.31 22.304-51.987 34.604-83.595 34.604h-551.75zM237.265 819.006zM739.751 503.716h-472.93c-21.75 0-39.407 17.657-39.407 39.413 0 21.749 17.654 39.407 39.407 39.407h472.93c21.799 0 39.413-17.657 39.413-39.407 0-21.758-17.614-39.413-39.413-39.413v0zM739.751 503.716zM727.46 264.77h-472.935c-21.75 0-39.408 17.614-39.408 39.408 0 21.793 17.657 39.412 39.408 39.412h472.935c21.793 0 39.408-17.619 39.408-39.412 0-21.794-17.657-39.408-39.408-39.408v0zM727.46 264.77z"  horiz-adv-x="1024" />

    
    <glyph glyph-name="wode" unicode="&#58897;" d="M617.434 336.36h-205.261c-175.658 0-318.163-146.054-318.163-326.102v-21.011c0-73.587 142.412-73.68 318.163-73.68h205.261c175.658 0 318.163 2.708 318.163 73.68v21.011c0 180.047-142.506 326.102-318.163 326.102zM266.211 623.24c0-137.294 111.298-248.592 248.592-248.592s248.592 111.298 248.592 248.592-111.298 248.592-248.592 248.592-248.592-111.298-248.592-248.592z"  horiz-adv-x="1024" />

    
    <glyph glyph-name="xuanze" unicode="&#58903;" d="M902.85546667 650.1984c-83.97333333 134.74666667-233.48906667 224.42026667-403.95306667 224.42026667-262.68586667 0-475.63306667-212.9472-475.63306667-475.63306667 0-96.30933333 28.62613333-185.93173333 77.83146667-260.8256 83.9744-134.7456 233.48906667-224.4192 403.95306667-224.4192 262.68586667 0 475.63306667 212.9472 475.63306666 475.63306667 0 96.30826667-28.62506667 185.93066667-77.83146666 260.82453333zM796.2016 478.7328c-27.84426667-26.77866667-224.7584-217.06666667-317.088-317.088-33.38666667-36.1696-63.4176 0-63.4176 0s-171.1328 171.13386667-184.48 184.48106667c-27.62026667 31.20853333 15.44533333 83.89973333 58.0704 37.0592 65.57333333-65.57653333 158.11946667-158.12266667 158.11946667-158.12266667s214.68053333 214.68053333 307.01226666 307.01226667c28.5952 27.584 79.46133333-17.10506667 41.78346667-53.34186667z"  horiz-adv-x="1024" />

    
    <glyph glyph-name="guanbi3" unicode="&#58900;" d="M512 889.294366189037c-279.0446592859654 0-505.294366189037-226.24970560853333-505.294366189037-505.294366189037S232.95666502668638-121.29304058184698 512-121.29304058184698c279.12679126660737 0 505.29304058184687 226.24838129588144 505.29304058184687 505.29304058184687S791.1267912666074 889.294366189037 512 889.294366189037zM755.3689204963555 199.18851754160983c17.06092830214321-17.148358827930863 17.06092830214321-44.93148159999999 0-62.12488000347655-8.66094778342716-8.531126307397532-19.891831067180245-12.864248824414814-31.12801289607901-12.864248824414814-11.236181828898767 0-22.3796345868642 4.333123811555555-31.040582370291357 12.864248824414814L514.0387268987258 316.2371585668741 334.8771285674667 137.0636375381332c-8.659623470775307-8.531126307397532-19.895805299674073-12.864248824414814-31.126688583427157-12.864248824414814-11.236181828898767 0-22.3796345868642 4.333123811555555-31.047205228088888 12.864248824414814-17.062252614795064 17.192074090824693-17.062252614795064 44.97652117554568 0 62.12488000347655l179.18544372622225 179.2053135941531L272.7098589082865 557.5978204172642c-17.06887547259259 17.148358827930863-17.06887547259259 44.932805912651844 0 62.12488000347655 17.148358827930863 17.111266422834564 44.93148159999999 17.111266422834564 62.16727095371851 0l179.16292264391106-179.18014388653825 190.37393605973332 190.39248161501234c17.149683140582717 17.111266422834564 44.932805912651844 17.111266422834564 62.16859526637037 0 17.06755115994074-17.19074977817284 17.06755115994074-44.97652117554568 0-62.12488000347655L576.1821524574816 378.39250682311115 755.3689204963555 199.18851754160983z"  horiz-adv-x="1024" />

    
    <glyph glyph-name="fanzhuanjingtouxianxing" unicode="&#58965;" d="M650.3559104 257.5619232c8.17444267 18.6705632 12.68790507 39.29932373 12.68790507 60.97049387 0 84.28004373-68.3142848 152.59432853-152.5954208 152.59432853-29.14376 0-56.3500608-8.16352747-79.512256-22.33154347L383.76145067 495.9600672c35.72239147 25.5362656 79.4489472 40.56549547 126.68694506 40.56549547 120.407392 0 217.9931456-97.5966688 217.9931456-217.9920544 0-47.23908907-15.03032107-90.9874752-40.57641066-126.66729707l-0.084048 0.0851392c-1.61764267-3.91639787-4.00262827-7.61885547-7.2390048-10.8126624-12.77304427-12.77413547-33.35923627-12.88110507-46.19558934-0.0425696l-46.30146773 46.28072853c-12.75230507 12.77195307-12.83744427 33.37888427 0.0218304 46.23597547 12.77304427 12.77413547 33.37997547 12.85927467 46.23706773 0.0218304L650.3559104 257.5619232zM315.25614827 415.68155947c-14.60462613-29.2496384-22.8008992-62.23666453-22.8008992-97.1480512 0-120.4084832 97.607584-217.9931456 217.9931456-217.9931456 41.59698773 0 80.47061653 11.6662368 113.5515136 31.8889504l-48.19635734 48.1767104c-19.79810987-9.4100512-41.95828267-14.66793493-65.35515626-14.66793494-84.281136 0-152.5954208 68.3142848-152.5954208 152.5954208 0 10.68713707 1.08606933 21.13959573 3.19380693 31.20892907l9.51592853-9.4951904c12.85818347-12.85709227 33.46511467-12.75121387 46.21741974 0 12.85818347 12.85927467 12.79487467 33.47602987 0.0218304 46.23925013l-46.28072854 46.27963734c-12.85709227 12.84835947-33.46511467 12.75230507-46.23815893-0.0218304C319.42796373 427.8804608 316.4262656 421.90871893 315.25614827 415.68155947zM946.32771627 645.52104427L729.1008224 645.52104427l-46.43026773 91.90217493c-10.8563232 21.52272213-39.21309333 38.89327573-63.353296 38.89327573L401.58062187 776.31649493c-24.16312427 0-52.433664-17.57357867-63.204848-39.24474773l-45.451168-91.55070293L74.56907307 645.52104427c-24.09763307 0-43.70472533-19.43681387-43.70472534-43.41656214l0-567.13321386c0-23.84330773 19.56452267-43.4285696 43.70472534-43.4285696l871.7586432 0c24.11946347 0 43.70472533 19.43681387 43.70472533 43.4285696L990.03244267 602.10448107C990.03244267 625.9477888 970.46791893 645.52104427 946.32771627 645.52104427zM924.6347168 78.74148479999997c0-12.02862293-9.87831573-21.80106133-21.73556907-21.80106133L117.99764267 56.94042347000004c-12.00679253 0-21.73556907 9.7516992-21.73556907 21.80106133l0 479.57313173c0 12.03735573 9.87831573 21.80870187 21.73556907 21.80870187l218.0564544 0 32.46418453 65.39772587 22.735408 45.8135552c5.36485333 10.81375467 19.43681387 19.58417067 31.5494848 19.58417066l175.62881493 0c12.07119253 0 26.16389333-8.5783072 31.570224-19.29819093l23.28990294-46.09953493 33.04051093-65.39772587 216.56542933 0c12.00679253 0 21.73556907-9.75060693 21.73556907-21.80870187L924.6336256 78.74148479999997z"  horiz-adv-x="1024" />

    
    <glyph glyph-name="tuijian" unicode="&#58893;" d="M503.797-113.59c250.119 0 424.889 164.65 459.474 403.223 60.543 417.759-177.285 578.11-200.203 591.956-114.557-277.167-233.861-153.668-259.266-153.668 22.708 44.966 119.963 116.218 102.678 105.977-4.246-2.511-191.739 26.361-397.69-160.666-134.386-122.026-157.891-276.358-157.891-366.076 0.005-232.37 202.766-420.747 452.897-420.747v0zM268.893 423.468c0 0-56.21-160.496 60.526-148.455 116.753 12.059 142.688 140.608 311.311 140.608 0 0-140.893-202.9-52.242-241.068 88.628-38.162 111.977 8.062 194.558 64.284-10.806-90.382-47.646-273.206-320.025-253.132-272.39 20.081-401.663 244.937-194.127 437.763v0z"  horiz-adv-x="1024" />

    
    <glyph glyph-name="yonghu" unicode="&#58884;" d="M1008.555-26.96h-108.348c0 17.124-30.917 88.091-107.449 162.097-47.242 45.681-144.054 122.322-261.626 122.322s-214.382-76.642-261.623-122.322c-76.538-74.011-107.454-144.969-107.454-162.097h-108.345c0 39.805 22.282 85.313 40.977 116.477 25.477 42.49 59.885 85.193 99.505 123.503 59.004 57.059 181.239 152.779 336.937 152.779 155.702 0 277.941-95.716 336.943-152.779 39.617-38.314 74.019-81.017 99.503-123.503 18.697-31.164 40.977-76.672 40.977-116.477h0.004zM531.131 257.454c-82.298 0-159.678 32.046-217.873 90.25-58.196 58.192-90.246 135.565-90.246 217.867 0 82.297 32.050 159.67 90.246 217.867 58.196 58.192 135.575 90.242 217.873 90.242s159.68-32.046 217.873-90.242c58.198-58.196 90.247-135.57 90.247-217.867 0-82.302-32.046-159.675-90.247-217.867-58.197-58.196-135.574-90.25-217.873-90.25v0zM531.131 765.335c-110.16 0-199.775-89.618-199.775-199.769 0-110.156 89.618-199.773 199.775-199.773 110.157 0 199.778 89.618 199.778 199.773 0.001 110.153-89.621 199.769-199.778 199.769v0z"  horiz-adv-x="1024" />

    
    <glyph glyph-name="jiaguanzhu" unicode="&#58969;" d="M1218.207 896h-741.517c-262.179 0-476.69-214.51-476.69-476.69v-70.621c0-262.179 214.51-476.69 476.69-476.69h741.517c262.179 0 476.69 214.51 476.69 476.69v70.621c0 262.179-214.51 476.69-476.69 476.69zM603.666 691.271c82.026 0 148.498-66.489 148.498-148.498s-66.489-148.498-148.498-148.498c-82.008 0-148.498 66.489-148.498 148.498s66.489 148.498 148.498 148.498zM862.808 75.034h-518.268v91.401c0 105.578 86.369 191.947 191.947 191.947h134.356c105.578 0 191.947-86.387 191.947-191.947l0-91.401zM1372.637 383.453c0-9.41-7.698-17.108-17.108-17.108h-168.271v-168.271c0-9.41-7.698-17.108-17.108-17.108h-1.095c-9.41 0-17.108 7.698-17.108 17.108l-0 168.271h-168.271c-9.41 0-17.108 7.698-17.108 17.108v1.095c0 9.41 7.698 17.108 17.108 17.108h168.271v168.271c0 9.41 7.698 17.108 17.108 17.108h1.095c9.41 0 17.108-7.698 17.108-17.108l-0-168.271h168.271c9.41 0 17.108-7.698 17.108-17.108l0-1.095z"  horiz-adv-x="1695" />

    
    <glyph glyph-name="xiangji1" unicode="&#59007;" d="M420.082 788.067c28.43 32.181 54.362 46.493 97.997 46.493h150.014c40.253 0 71.118-17.098 93.397-42.304l56.945-64.41c24.315-27.58 80.836-55.905 122.724-55.905h82.639c41.253 0 74.015-31.059 74.015-68.023v-602.455c0-36.919-32.656-67.9-74.138-68.023h-862.193c-1.574 0-3.141 0.045-4.699 0.134-39.196 2.258-69.316 32.481-69.316 67.888v602.455c0 36.964 32.762 68.023 74.015 68.023h80.799c41.612 0 99.684 27.728 122.422 53.474l55.378 62.652zM242.282 753.862h-80.799c-85.548 0-155.935-66.73-155.935-149.943v-602.455c0-79.823 64.928-144.971 146.524-149.673 3.126-0.18 6.265-0.271 9.411-0.271h862.316c85.764 0.256 155.935 66.827 155.935 149.943v602.455c0 83.214-70.388 149.943-155.935 149.943h-82.639c-17.065 0-51.793 17.404-61.313 28.203l-56.979 64.448c-36.562 41.364-88.195 69.967-154.773 69.967h-150.014c-69.902 0-116.657-25.803-159.383-74.167l-55.382-62.656c-7.607-8.613-43.59-25.794-61.031-25.794zM850.293 330.903c0 137.107-116.651 247.277-259.413 247.277-142.763 0-259.413-110.17-259.413-247.277 0-137.107 116.651-247.277 259.413-247.277 142.763 0 259.413 110.17 259.413 247.277zM413.387 330.903c0 90.784 78.96 165.357 177.493 165.357s177.493-74.573 177.493-165.357c0-90.784-78.96-165.357-177.493-165.357-98.533 0-177.493 74.573-177.493 165.357z"  horiz-adv-x="1178" />

    
    <glyph glyph-name="bofang3" unicode="&#59009;" d="M511.999501-127.998005c-282.768717 0-511.999501 229.233778-511.999501 511.996508 0 282.770712 229.231782 512.00449 511.999501 512.00449 282.770712 0 512.001497-229.233778 512.001497-512.00449C1024.000998 101.235773 794.770213-127.998005 511.999501-127.998005zM512.064351 848.207753c-256.381865 0-464.228206-207.840354-464.228206-464.222219 0-256.389847 207.84634-464.225212 464.228206-464.225212 256.384858 0 464.222219 207.835366 464.222219 464.225212C976.28657 640.367399 768.449209 848.207753 512.064351 848.207753zM396.350504 577.249667 735.74799 382.599745 396.350504 190.020026 396.350504 577.249667z"  horiz-adv-x="1025" />

    
    <glyph glyph-name="chenggong" unicode="&#58943;" d="M512 896c-282.778 0-512-229.222-512-512s229.222-512 512-512c282.726 0 511.949 229.222 511.949 512 0 282.778-229.222 512-511.949 512zM801.28 525.619l-352.256-352.256c-0.563-0.563-0.717-1.28-1.331-1.843-19.968-20.019-50.278-22.17-67.584-4.813l-3.686 3.686c-0.512 0.461-1.178 0.614-1.69 1.126-0.512 0.461-0.666 1.126-1.126 1.638l-154.214 154.266c-17.357 17.306-15.206 47.616 4.813 67.584 19.968 20.019 50.227 22.17 67.584 4.813l119.45-119.45 317.645 317.645c19.968 20.019 52.378 20.019 72.397 0 20.019-19.968 20.019-52.378 0-72.397z"  horiz-adv-x="1024" />

    
    <glyph glyph-name="dianzan1" unicode="&#58938;" d="M896.318-59.916c-21.553-41.419-60.726-61.12-113.584-61.12h-173.311c-88.219 0-173.274 18.14-189.409 21.796-75.148 17.275-110.29 25.697-128.561 30.219-0.594 0.186-0.899 0.246-1.46 0.365-3.030 0.807-5.476 1.428-7.581 1.986-0.434 0.062-1.116 0.242-1.486 0.365-1.667-3.483-4.222 38.034-6.261 34.791v592.182c6.48 3.214 13.19 6.58 16.788 8.483 106.399 55.921 126.123 166.208 126.833 230.046 0.652 52.061 43.355 94.389 95.122 94.389 73.325 0 156.188-100.195 156.188-213.957 0-47.621-1.45-74.438-7.925-104.195 136.309-3.59 229.542-3.471 269.142-13.872v0.006c62.205-17.771 89.907-68.853 89.922-108.899 0.099-278.277-103.354-475.726-124.414-512.59zM214.976-47.034c0-49.137-0.659-74.012-18.647-74.012h-95.129c-52.449 0-95.118 42.666-95.118 95.122v507.324c0 52.435 42.669 95.115 95.118 95.115h95.129c17.259 0 18.647-24.062 18.647-44.495v-579.055z"  horiz-adv-x="1024" />

    
    <glyph glyph-name="message" unicode="&#58958;" d="M731.429 18.286l-146.286-146.286-146.286 146.286h-293.006c-80.551 0-145.851 65.971-145.851 146.91v583.895c0 81.136 65.427 146.91 145.851 146.91h878.583c80.551 0 145.851-65.971 145.851-146.91v-583.895c0-81.136-65.427-146.91-145.851-146.91h-293.006zM731.429 91.429h293.006c39.963 0 72.708 32.963 72.708 73.767v583.895c0 40.744-32.755 73.767-72.708 73.767h-878.583c-39.963 0-72.708-32.963-72.708-73.767v-583.895c0-40.744 32.755-73.767 72.708-73.767h323.303l167.709-167.709h-103.44l167.709 167.709h30.297zM292.571 384c40.396 0 73.143 32.747 73.143 73.143 0 40.396-32.747 73.143-73.143 73.143-40.396 0-73.143-32.747-73.143-73.143 0-40.396 32.747-73.143 73.143-73.143zM585.143 384c40.396 0 73.143 32.747 73.143 73.143 0 40.396-32.747 73.143-73.143 73.143-40.396 0-73.143-32.747-73.143-73.143 0-40.396 32.747-73.143 73.143-73.143zM877.714 384c40.396 0 73.143 32.747 73.143 73.143 0 40.396-32.747 73.143-73.143 73.143-40.396 0-73.143-32.747-73.143-73.143 0-40.396 32.747-73.143 73.143-73.143z"  horiz-adv-x="1171" />

    
    <glyph glyph-name="tubiao03" unicode="&#58883;" d="M917.258 294.108c-0.169-44.617-12.303-86.087-30.723-125.398-21.024-44.82-48.911-83.933-81.196-119.217-59.052-64.599-126.15-116.107-202.335-152.719-18.327-8.819-37.12-16.695-57.194-18.793-12.004-1.217-24.17-0.641-36.274-0.676-9.699-0.035-19.469-0.473-29.104 0.605-19.777 2.301-38.332 9.874-56.384 18.658-92.176 44.925-172.386 108.301-238.166 193.381-28.633 37.014-51.613 77.978-66.049 124.426-8.989 28.929-13.387 58.608-13.351 89.269 0.134 109.617 0.035 219.234 0.134 328.892 0.030 3.11 0.95 6.419 2.162 9.221 2.605 6.052 5.884 11.727 8.587 17.745 12.402 27.717 32.208 45.933 57.363 58.714 111.342 56.554 222.415 113.742 333.588 170.697 0.978 0.501 1.893 1.248 2.836 1.893h1.695c10.007-5.308 19.94-10.678 29.984-15.852 98.397-50.47 196.894-100.628 295.052-151.671 12.676-6.589 23.593-17.407 35.082-26.635 18.897-15.216 31.3-36.572 43.603-57.934 0.676-1.182 0.816-2.942 0.816-4.427 0.047-113.404 0.321-226.771-0.123-340.182v0zM866.757 451.29c0 51.316 0.035 102.586-0.069 153.902 0 2.533-0.605 5.273-1.585 7.532-16.567 38.302-43.201 65.14-77.606 82.581-90.626 45.974-181.415 91.634-272.099 137.503-2.336 1.182-4.161 1.351-6.663 0.099-77.845-39.444-155.754-78.789-233.705-118.069-16.125-8.114-32.18-16.526-48.672-23.529-33.735-14.366-56.419-40.055-67.942-78.014-0.739-2.464-1.113-5.167-1.113-7.771-0.069-98.496-0.069-197.028-0.069-295.557 0-19.777 2.132-39.281 6.425-58.483 10.206-45.694 29.984-86.123 55.941-122.869 51.783-73.278 116.817-128.107 191.925-168.769 33.735-18.251 68.786-29.878 106.913-26.361 7.847 0.739 15.822-0.134 23.628 0.739 20.081 2.268 38.838 9.868 57.194 18.757 56.413 27.245 106.576 65.134 151.77 111.277 32.553 33.194 60.876 70.243 82.546 113.235 21.968 43.674 34.037 90.113 33.328 140.579-0.645 44.384-0.146 88.797-0.146 133.216v0zM752.812 470.862c-5.273-5.273-228.128-221.634-246.078-239.582-17.949-17.983-40.225 0.065-40.225 0.065s-127.664 109.477-140.34 122.159c-12.676 12.676-10.988 27.478-2.127 38.973 9.024 11.761 27.14 9.565 35.594 3.245 8.447-6.355 131.316-102.387 131.316-102.387s147.172 138.622 227.244 218.698c9.938 9.938 28.394 9.769 32.622 5.546 21.129-21.129 7.27-41.443 1.993-46.714v0z"  horiz-adv-x="1024" />

    
    <glyph glyph-name="bofang" unicode="&#58933;" d="M277.25 769.5L823.25 459.75c56.25-32.25 56.25-111.75 0-144L277.25 6c-56.25-32.25-126.75 8.25-126.75 72V697.5c0.75 63.75 70.5 104.25 126.75 72z m0 0"  horiz-adv-x="1024" />

    
    <glyph glyph-name="shuaxin" unicode="&#59020;" d="M698.048 130.944c-51.524-37.081-115.902-59.303-185.47-59.303-10.932 0-21.735 0.549-32.384 1.62-2.242 0.275-5.826 0.851-9.346 1.363-17.471 2.067-33.231 5.477-48.405 10.215 23.701-6.311 19.605-5.095 15.573-4.135-25.089 5.304-47.237 12.987-68.022 23.044 45.302-17.028 42.422-16.068 39.414-14.852-26.831 8.501-50.17 20.447-71.031 35.596l44.151-25.548c-60.899 28.411-112.999 65.036-157.599 109.22l131.807-96.42c-51.445 28.858-93.108 69.666-122.16 118.812 47.984-62.428 47.728-61.98 47.28-61.596-28.635 28.763-50.893 63.899-64.461 103.092-2.982-21.021-29.747 50.215-29.747 127.702 0 0.087 0 0.173 0 0.26l85.44-0.013-136.512 207.36-136.576-207.36h85.248c0-90.88 28.096-175.168 75.584-244.928 0.64-1.024 0.96-2.112 1.6-3.008 4.864-7.232 10.432-13.76 15.68-20.416 1.984-2.432 3.776-4.928 5.888-7.68 44.137-52.802 98.497-95.474 160.224-125.301-104.8 66.613-72.544 42.293-37.472 22.645l2.88-1.472c10.112-5.568 20.48-10.624 30.976-15.296l7.808-3.456c60.421-24.931 130.417-42.027 203.587-47.866-154.563 30.65-146.307 28.474-137.859 26.554 5.632-1.28 11.008-2.752 16.768-3.84 2.304-0.512 4.48-1.28 6.784-1.472 8-1.472 16-2.24 23.808-3.2 2.944-0.512 5.76-1.024 8.576-1.28 14.272-1.472 28.48-2.304 42.624-2.304 91.605 0.055 176.335 29.44 245.322 79.27 11.924 8.67 20.463 24.117 20.463 41.558 0 11.078-3.445 21.352-9.323 29.808-9.107 13.305-24.408 22.034-41.748 22.034-11.019 0-21.214-3.525-29.521-9.508zM938.496 400c0 0.23 0.001 0.502 0.001 0.775 0 90.914-28.046 175.277-75.959 244.91l-0.778 1.995c-42.96 59.018-96.176 107.759-157.428 144.467 135.924-116.667 133.895-112.729 132.791-108.42-54.602 62.507-134.343 114.093-225.573 136.376 68.13-23.111 66.594-22.279 64.802-21.575-44.399 18.626-95.847 31.427-149.666 35.856 115.938-23.44 112.29-22.096 108.578-21.008-30.485 9.463-65.725 15.654-102.166 17.214 70.422-9.022 65.302-7.742 60.31-6.718-2.496 0.448-4.736 1.216-7.36 1.728-6.784 1.088-13.376 1.728-20.16 2.56-4.736 0.512-9.216 1.28-13.952 1.792-11.639 1.111-25.179 1.75-38.866 1.76 2.962-0.032 0.914 0.288-1.070 0.288l-1.088-0.128c-91.407-0.015-175.975-29.284-244.855-78.953-11.992-8.733-20.52-24.171-20.52-41.6 0-11.141 3.484-21.468 9.423-29.951 9.174-13.214 24.46-21.865 41.767-21.865 11.058 0 21.291 3.532 29.632 9.529 51.267 36.973 115.542 59.196 185.006 59.196 11.132 0 22.131-0.571 32.969-1.685 1.585-0.143 4.337-0.527 7.217-0.975 7.68-0.96 15.36-2.048 22.912-3.648 3.264-0.576 6.656-1.472 9.792-2.176 7.488-1.728 14.72-3.456 21.952-5.696 2.368-0.64 4.544-1.472 6.784-2.368 8.32-2.688 16.512-5.568 24.32-8.96 0.896-0.256 1.728-0.896 2.496-1.216 66.459-29.443 119.842-78.327 154.125-139.379-31.693 46.451-31.565 46.131-31.245 45.939 45.872-56.21 73.664-128.747 73.664-207.776 0-0.101-0-0.203-0-0.304l-85.44 0.016 136.768-207.488 136.32 207.488h-85.504z"  horiz-adv-x="1024" />

    
    <glyph glyph-name="guanbi" unicode="&#59313;" d="M810.69354875 764.1290325L512 465.43548375 213.30645125 764.1290325 131.8709675 682.69354875 430.51612906 384l-298.64516156-298.69354875 81.43548375-81.43548375 298.69354875 298.64516156 298.69354875-298.64516156 81.43548375 81.43548375-298.69354875 298.69354875 298.69354875 298.69354875z"  horiz-adv-x="1024" />

    
    <glyph glyph-name="yonghuming-" unicode="&#58891;" d="M1011.392-90.242c-18.085 117.105-77.654 224.506-167.738 302.42-55.258 47.794-119.932 82.459-189.161 102.396 98.007 51.177 165.104 153.749 165.104 271.758 0 168.965-137.466 306.43-306.43 306.43s-306.429-137.465-306.429-306.43c0-118.734 67.926-221.835 166.917-272.688-68.167-20.111-131.835-54.512-186.331-101.718-90.141-78.084-149.647-185.679-167.568-302.962-2.471-16.191 8.65-31.319 24.837-33.793 1.52-0.233 3.026-0.345 4.518-0.345 14.398 0 27.034 10.51 29.279 25.18 15.788 103.371 68.267 198.225 147.77 267.092 80.295 69.556 183.101 107.861 289.478 107.861 106.253 0 208.966-38.226 289.217-107.639 79.45-68.718 131.982-163.403 147.92-266.612 2.499-16.186 17.631-27.273 33.834-24.782 16.182 2.499 27.279 17.646 24.78 33.831zM266.049 586.332c0 136.263 110.858 247.121 247.121 247.121s247.121-110.858 247.121-247.121-110.858-247.121-247.121-247.121-247.121 110.858-247.121 247.121z"  horiz-adv-x="1024" />

    
    <glyph glyph-name="bianji" unicode="&#58918;" d="M649.118 855.106h-505.334c-78.932 0-143.784-63.060-143.784-140.84v-701.469c0-77.823 64.767-140.797 144.637-140.797h720.285c79.956 0 144.637 63.103 144.637 140.925v488.652h-72.105v-488.652c0-39.082-32.426-70.697-72.532-70.697h-720.285c-40.106 0-72.532 31.573-72.532 70.612v701.427c0 38.911 32.426 70.612 71.721 70.612h505.292v70.228zM452.514 389.153c-6.515-6.28-10.561-15.084-10.561-24.832s4.046-18.551 10.55-24.821c6.607-6.374 15.597-10.295 25.503-10.295 9.906 0 18.897 3.921 25.504 10.296l509.889 496.535c6.515 6.28 10.561 15.084 10.561 24.832 0 9.748-4.046 18.551-10.55 24.821-6.607 6.374-15.597 10.295-25.503 10.295-9.906 0-18.897-3.921-25.504-10.296l-509.889-496.535z"  horiz-adv-x="1024" />

    
    <glyph glyph-name="guanliyuan" unicode="&#58930;" d="M926.188 91.564c5.825-39.613 39.613-33.788 45.438-51.264 0-11.069-5.825-51.264-22.719-56.507-16.894 0-39.613 5.825-56.507 0-11.069-5.825-22.719-11.069-28.545-22.719-11.069-28.545 11.069-51.264 0-62.332-16.894-11.069-51.264-28.545-62.332-16.894-16.894 16.894-16.894 39.613-51.264 39.613-45.438 0-45.438-45.438-68.158-45.438s-62.332 16.894-62.332 33.788c5.825 22.719 16.894 39.613-5.825 62.332-28.545 22.719-62.332 0-73.983 11.069-16.894 11.069-22.719 39.613-16.894 56.507 5.825 16.894 45.438 16.894 45.438 62.332 0 33.788-39.613 39.613-45.438 62.332-5.825 16.894 5.825 45.438 22.719 51.264 28.545 11.069 45.438-11.069 73.983 11.069 16.894 16.894 11.069 56.507 11.069 68.158 5.825 16.894 28.545 22.719 45.438 22.719 33.788 0 22.719-39.613 68.158-45.438 45.438 0 39.613 16.894 62.332 45.438 28.545 0 51.264-11.069 56.507-22.719 11.069-22.719-11.069-56.507 22.719-79.226 28.545-16.894 56.507 5.825 73.983 0 11.069-5.825 16.894-22.719 22.719-45.438-11.069-33.205-62.332-27.379-56.507-78.643zM721.715 205.159c-136.315-33.788-85.051-232.434 45.438-210.298 131.072 28.545 113.596 238.843-45.438 210.298zM489.281 403.807c-136.315 0-244.085 107.771-244.085 244.085s107.771 244.085 244.085 244.085 244.085-107.771 244.085-244.085c0-130.49-107.771-244.085-244.085-244.085zM687.927 347.3s-90.877 0-85.051-62.332c5.825-68.158-85.051-16.894-101.945-73.983-22.719-68.158 11.069-56.507 28.545-101.945 11.069-28.545-45.438-45.438-39.613-96.702 11.069-68.158 68.158-33.788 85.051-73.983 11.069-33.788-28.545-56.507-119.421-56.507-73.983 0-215.54 0-266.804 5.825 0 0-147.383 5.825-147.383 101.945 0 0-5.825 142.141 85.051 244.085 0 0 96.702 124.665 260.979 124.665l300.592-11.069z"  horiz-adv-x="1024" />

    
    <glyph glyph-name="tubiao051" unicode="&#58887;" d="M257.226 637.137c1.346 104.066 88.588 189.082 192.646 187.747 104.077-1.341 189.082-88.581 187.741-192.646-1.333-104.066-88.563-189.087-192.635-187.747-104.071 1.341-189.099 88.576-187.754 192.646v0zM126.474-39.538c-32.295 0.414-57.089 25.871-56.675 58.156 2.459 190.194 151.613 346.198 338.463 361.742v0 0c10.759-0.134 21.524-0.274 35.878-0.466l3.595-0.047c43.108 3.028 104.258 13.014 136.921 41.297l14.482 10.596c61.674 49.453 98.467 120.762 99.486 199.708 1.806 139.95-111.551 256.272-255.084 258.124-132.79 1.707-249.106-111.655-250.9-251.612-1.025-78.946 33.945-151.175 94.303-202.206l17.797-11.005-18.029-6.932c-165.908-62.466-279.195-218.943-281.508-398.371-0.874-68.175 52.266-122.713 120.446-123.593l326.561-4.206c10.771-0.14 28.847 10.398 29.127 31.935 0.321 25.119-17.529 32.524-28.294 32.663l-326.567 4.218zM957.296 93.334c-53.92-6.49-93.952-49.038-94.686-106.454-0.14-10.766 3.262-25.178 6.746-32.389l-46.958-24.525c-3.548 3.641-10.631 10.917-17.721 18.175-21.345 14.627-39.199 22.044-60.73 22.323-17.949 0.234-39.572-6.676-61.29-20.75-7.265-7.072-14.494-10.585-18.175-17.715l-42.73 25.684c3.676 7.124 7.444 21.443 7.584 32.203 0.687 53.833-38.179 100.978-91.907 108.859 0.093 7.166-3.314 21.584-3.135 35.937 0.14 10.759 3.915 25.072 4.055 35.826 53.92 6.49 93.94 49.044 94.686 106.46 0.134 10.771-3.262 25.166-6.757 32.395l46.977 24.525c3.542-3.647 10.626-10.911 17.756-14.593 21.345-14.633 39.199-22.037 57.147-22.271 17.936-0.234 35.972 6.717 57.689 20.785 7.265 7.084 14.487 10.574 18.123 14.132l46.33-25.731c-3.676-7.131-7.451-21.438-7.59-32.203-0.699-53.827 38.186-100.983 91.914-108.866-0.093-7.166 3.303-21.566 3.117-35.92 3.472-10.818-0.303-25.132-0.443-35.89v0zM1008.693 182.405c-3.349 17.977-17.517 32.524-31.883 32.71l-3.588 0.041c-32.29 0.42-57.084 25.871-56.675 58.156 0.093 7.178 3.817 17.89 3.862 21.497 7.417 17.837 0.513 39.468-13.712 50.426l-64.121 36.717c-3.595 0.047-10.771 0.14-17.949 0.234-10.771 0.14-25.166-3.274-32.489-13.934-7.27-7.089-29.034-24.769-43.377-24.582-14.366 0.181-35.664 18.414-46.33 25.737-7.089 7.259-17.762 14.58-32.122 14.767-7.178 0.093-10.766 0.14-14.401-3.413v0l-68.641-35.017c-14.494-10.562-21.95-32.004-15.006-50.052 0 0 3.46-10.813 3.314-21.566-0.407-32.308-25.854-57.101-58.161-56.688l-3.583 0.047c-14.354 0.181-28.899-13.981-32.721-31.871-0.047-3.595-7.532-28.633-7.858-53.745-0.279-21.532 2.93-50.291 6.466-53.92 3.356-17.989 17.546-32.517 31.9-32.704l3.571-0.047c32.308-0.42 57.111-25.871 56.688-58.166-0.093-7.166-3.817-17.897-3.874-21.49-7.405-17.844-0.5-39.473 13.712-50.419l64.138-36.717c7.218 3.495 10.8 3.443 17.983 3.356 10.771-0.134 25.159 3.267 32.482 13.946 7.265 7.072 29.075 28.33 47.018 28.102 14.349-0.187 39.246-18.444 46.277-29.308 7.089-7.276 17.767-14.587 32.133-14.773 7.158-0.093 10.748-0.14 17.971 3.361l65.063 35.057c14.494 10.574 21.95 32.017 15.006 50.052 0 0-3.46 10.813-3.314 21.566 0.414 32.308 25.854 57.106 58.156 56.688l3.583-0.041c14.354-0.187 28.894 13.981 32.721 31.888 0 0 7.543 28.614 7.865 53.733-6.927 18.018-10.154 46.79-10.107 50.379v0zM745.431 85.296c-25.119 0.321-46.365 22.131-46.044 47.255 0.326 25.119 22.131 46.37 47.244 46.044 25.119-0.321 46.375-22.131 46.050-47.244-0.321-25.137-22.125-46.382-47.25-46.057v0zM765.225 228.612c-68.006 15.234-129.778-44.985-116.363-116.951 6.676-39.566 38.553-72.276 77.932-79.965 68.006-15.239 129.785 44.978 116.316 113.351-6.623 43.155-38.506 75.876-77.886 83.565v0z"  horiz-adv-x="1024" />

    
    <glyph glyph-name="shipin" unicode="&#58940;" d="M837.2527411199999 539.3445922133333l138.35377777777776 80.09955555555555c24.272592213333333 14.563555555555556 46.11792554666667 2.4272588799999997 46.11792554666667-21.845333333333333v-400.49777777777774c0-29.127111111111113-19.41807445333333-38.836147768888885-46.11792554666667-21.845333333333333l-138.35377777777776 80.09955555555555c-24.272592213333333 14.563555555555556-46.11792554666667 31.55436999111111-46.11792668444445 55.82696334222223v177.18992554666664c0 21.845333333333333 21.845333333333333 36.40888888888889 46.11792668444445 50.97244444444444m0 0zM618.7994077866666 689.8346666666666H99.36592554666669c-53.39970332444444 0-97.0903699911111-43.690666666666665-97.0903699911111-97.0903699911111v-417.48859335111115c0-53.39970332444444 43.690666666666665-97.0903699911111 97.0903699911111-97.0903699911111h519.43348224c53.39970332444444 0 97.0903699911111 43.690666666666665 97.0903699911111 97.0903699911111V592.7442966755556c0 53.39970332444444-43.690666666666665 97.0903699911111-97.0903699911111 97.0903699911111z m-313.11644444444437-235.44414776888888c-7.281777777777778-36.40888888888889-36.40888888888889-63.10874112-67.96326001777777-70.39051889777778-63.10874112-12.136296675555554-116.50844444444445 43.690666666666665-104.3721477688889 104.3721477688889 7.281777777777778 36.40888888888889 36.40888888888889 63.10874112 67.96325888 67.96326001777777 63.10874112 16.990814435555553 116.50844444444445-36.40888888888889 104.37214890666665-101.94488888888888z"  horiz-adv-x="1024" />

    
    <glyph glyph-name="shanchu" unicode="&#58902;" d="M512 878.0372296691357a494.0372296691358 494.0372296691358 0 1 1 0-988.1573097876542A494.0372296691358 494.0372296691358 0 0 1 512 878.0372296691357z m234.9638744493827-560.2347387259258H277.118976c-24.689433916049378 0-44.73924266666667 24.85513481481481-44.73924266666667 55.42695063703704 0 30.65466627160494 20.04980875061728 55.509801086419756 44.73924266666667 55.509801086419756h469.84489844938264c24.689433916049378 0 44.65639221728395-24.85513481481481 44.65639221728395-55.509801086419756 0-30.57181582222222-19.966958301234566-55.42695063703704-44.65639221728395-55.42695063703704z"  horiz-adv-x="1024" />

    
    <glyph glyph-name="qun" unicode="&#58894;" d="M576.463 313.76c84.922 36.011 132.25 126.473 113.097 215.984-19.153 89.433-99.484 153.065-191.845 151.877s-170.951-66.877-187.73-156.784c-16.779-89.987 32.924-179.103 118.716-212.977-113.888-33.162-193.586-134.624-198.177-252.074h551.713c-4.67 120.299-88.245 223.344-205.775 253.973zM990.624 59.708c-3.562 93.073-68.222 172.93-159.237 196.594 53.343 22.715 90.779 75.187 90.779 136.365 0 82.073-64.186 152.907-164.778 148.395-0.713 0 0.87-0.079 0.158-0.079 3.008-24.693 3.245-49.623 0.791-74.396-10.764-79.065-48.753-121.486-80.964-148.554 85.001-28.571 163.037-129.243 178.074-258.247v-0.079h135.178zM334.362 319.141c-32.053 27.226-69.726 69.805-80.411 149.266-2.453 24.851-2.137 49.94 0.791 74.711-0.713 0 0.87 0.079 0.158 0.079-99.879 4.432-163.669-66.719-163.669-149.107 0-61.415 37.119-114.126 90.145-136.919-90.383-23.743-154.569-103.916-158.13-197.465l134.228 0.079c14.958 129.558 92.441 230.705 176.886 259.355z"  horiz-adv-x="1024" />

    
    <glyph glyph-name="zhaopian" unicode="&#59008;" d="M352.13 572.932c-12.946 13.385-31.146 21.167-49.458 21.167-18.314 0-36.513-7.781-49.458-21.167-12.955-13.376-20.484-32.181-20.484-51.102 0-18.922 7.531-37.727 20.484-51.102 12.946-13.376 31.146-21.167 49.458-21.167 18.302 0 36.512 7.79 49.458 21.167 12.946 13.376 20.484 32.181 20.484 51.102 0 18.921-7.539 37.727-20.484 51.102zM823.894 556.702c-138.633 0-170.079-103.782-190.881-172.48-15.773-52.108-25.009-75.316-47.361-79.034-45.607-7.52-80.023 3.146-119.824 15.506-30.988 9.649-63.023 19.619-101.287 20.596-134.437 3.62-197.609-198.786-200.194-207.39-5.733-19.037 4.58-39.246 23.015-45.17 3.117-1.054 6.707-1.662 10.439-1.663 14.852 0 28.669 9.94 33.267 25.415 13.255 43.805 62.291 156.588 130.071 156.588 0.525 0 1.051 0 1.573-0.038 28.889-0.727 55.154-8.895 82.927-17.527 42.001-12.98 89.531-27.748 151.055-17.634 67.396 11.13 87.188 76.353 103.038 128.752 22.875 75.52 41.131 121.812 124.16 121.812 19.343 0 34.976 16.192 34.976 36.14-0.001 19.936-15.635 36.129-34.977 36.129zM883.085 804.353h-734.709c-72.314 0-131.14-60.781-131.14-135.498v-575.025c0-74.717 58.826-135.498 131.14-135.498h734.708c72.305 0 131.14 60.781 131.14 135.498v575.025c0 74.717-58.825 135.498-131.139 135.498zM939.289 93.831c0-32.027-25.207-58.071-56.203-58.071h-734.709c-30.996 0-56.203 26.045-56.203 58.071v575.025c0 32.027 25.207 58.071 56.203 58.071h734.708c30.996 0 56.203-26.045 56.203-58.071v-575.025z"  horiz-adv-x="1024" />

    
    <glyph glyph-name="yiguanzhu1" unicode="&#59032;" d="M1218.207-128h-741.517c-262.179 0-476.69 214.51-476.69 476.69v70.621c0 262.179 214.51 476.69 476.69 476.69h741.517c262.179 0 476.69-214.51 476.69-476.69v-70.621c0-262.179-214.51-476.69-476.69-476.69zM1659.586 419.31c0 243.377-198.003 441.379-441.379 441.379h-741.517c-243.377 0-441.379-198.003-441.379-441.379v-70.621c0-243.377 198.003-441.379 441.379-441.379h741.517c243.377 0 441.379 198.003 441.379 441.379v70.621zM1132.915 258.242l-1.236 1.342-124.398 123.357c-3.341 3.342-5.407 7.958-5.407 13.056 0 5.046 2.024 9.619 5.304 12.952 3.339 3.338 7.955 5.405 13.054 5.405 5.046 0 9.619-2.024 12.952-5.304l99.679-98.849 214.775 214.758c3.334 3.313 7.93 5.361 13.003 5.361s9.669-2.048 13.004-5.362c3.311-3.331 5.359-7.923 5.359-12.993 0-5.070-2.047-9.663-5.36-12.995l-240.727-240.727zM344.541 166.435c0 105.578 86.369 191.947 191.947 191.947h134.374c105.578 0 194.242-80.666 194.242-186.244v-88.276h-512l-8.563 82.573zM603.666 394.275c-0 0-0 0-0 0-82.018 0-148.506 66.489-148.506 148.506 0 82.018 66.489 148.506 148.506 148.506 0 0 0 0 0 0 82.018-0 148.506-66.489 148.506-148.506 0-82.018-66.489-148.506-148.506-148.506z"  horiz-adv-x="1694" />

    
    <glyph glyph-name="xiaoxi" unicode="&#58928;" d="M921.6 32h-294.4c0-64-51.2-121.6-121.6-121.6-64 0-121.6 51.2-121.6 121.6h-294.4c-25.6 0-51.2 19.2-57.6 38.4-6.4 25.6 0 51.2 19.2 64 57.6 44.8 96 115.2 96 192v185.6c0 198.4 160 358.4 358.4 358.4s358.4-160 358.4-358.4v-179.2c0-76.8 38.4-147.2 96-192 19.2-12.8 32-44.8 19.2-64-6.4-25.6-32-44.8-57.6-44.8z"  horiz-adv-x="1024" />

    
    <glyph glyph-name="lingdang-kongxin" unicode="&#59710;" d="M901.12 188.302c-36.409 45.511-86.471 109.227-86.471 170.667v207.075c0 177.493-131.982 318.578-300.373 318.578s-302.649-143.36-302.649-318.578v-207.075c0-63.715-54.613-125.155-88.747-168.391-31.858-43.235-54.613-75.093-38.685-109.227 15.929-29.582 50.062-31.858 81.92-31.858h179.769c0-93.298 75.093-166.115 166.115-166.115s166.115 75.093 166.115 166.115h184.32c18.205 0 63.715 0 79.645 31.858 18.205 31.858-6.827 63.715-40.96 106.951zM514.275-52.907c-54.613 0-102.4 45.511-102.4 102.4h202.525c0-56.889-43.235-102.4-100.125-102.4zM866.987 115.485h-714.525c4.551 11.378 15.929 22.755 22.755 34.133 38.685 50.062 102.4 125.155 102.4 209.351v207.075c0 141.085 100.125 252.587 232.107 252.587s234.382-113.778 234.382-252.587v-207.075c0-86.471 59.165-161.565 102.4-213.902 6.827-6.827 15.929-18.205 22.755-29.582h-2.275z"  horiz-adv-x="1024" />

    
    <glyph glyph-name="zhongzuo" unicode="&#58953;" d="M887.46666667-32.42666667000003h-546.13333334C170.66666667-32.42666667000003 34.13333333 104.10666666999998 34.13333333 274.77333333s136.53333333 307.2 307.2 307.2h546.13333334c20.48 0 34.13333333-13.65333333 34.13333333-34.13333333s-13.65333333-34.13333333-34.13333333-34.13333333h-546.13333334C204.8 513.70666667 102.4 404.48 102.4 274.77333333s109.22666667-238.93333333 238.93333333-238.93333333h546.13333334c20.48 0 34.13333333-13.65333333 34.13333333-34.13333333s-20.48-34.13333333-34.13333333-34.13333334zM750.93333333 308.90666667000005c-6.82666667 0-20.48 0-27.30666666 6.82666666-13.65333333 13.65333333-13.65333333 34.13333333 0 47.78666667l211.62666666 211.62666667c13.65333333 13.65333333 34.13333333 13.65333333 47.78666667 0s13.65333333-34.13333333 0-47.78666667L771.41333333 315.73333333000005c-6.82666667 0-13.65333333-6.82666667-20.48-6.82666666zM955.73333333 520.53333333c-6.82666667 0-20.48 0-27.30666666 6.82666667L716.8 738.98666667c-13.65333333 13.65333333-13.65333333 34.13333333 0 47.78666666s34.13333333 13.65333333 47.78666667 0l211.62666666-211.62666666c13.65333333-13.65333333 13.65333333-34.13333333 0-47.78666667 0 0-6.82666667-6.82666667-20.48-6.82666667z"  horiz-adv-x="1024" />

    
    <glyph glyph-name="tuichuquanping1" unicode="&#58960;" d="M976.0221875 848.2078125c-21.024375 21.05625-55.040625 21.05625-76.096875 0L706.3578125 656.495625l1.2478125 154.6246875c0.511875 21.759375-16.8 40.7353125-38.495625 40.25625h-27.6478125c-21.7284375-0.54375-39.7125-13.5365625-40.25625-35.265l-1.1203125-282.30375c0-0.41625 1.471875-0.6721875 1.471875-1.055625l-2.1759375-19.74375c-0.1921875-10.944375 2.33625-20.7046875 9.440625-27.744375 6.9121875-7.040625 16.7353125-11.296875 27.583125-10.97625l19.6490625 0.41625c0.4153125 0 0.703125 0.159375 1.119375 0.2240625l281.184375-1.6640625c21.7275 0.48 39.7115625 18.4959375 40.25625 40.288125l0.0309375 27.7125c-3.328125 25.726875-23.488125 40.7353125-45.18375 40.2553125l-149.184375 0.575625 191.68125 189.9525c21.0871875 20.9596875 21.0871875 55.040625 0.06375 76.1596875zM47.7584375-80.02406250000001c21.0234375-21.088125 55.070625-21.088125 76.1278125 0l193.599375 190.528125-1.2478125-151.104375c-0.48-21.79125 16.768125-40.7671875 38.46375-40.2234375h29.28c21.7921875 0.54375 39.744375 13.471875 40.224375 35.2640625l1.1521875 279.9675c0 0.3525-1.471875 0.6403125-1.471875 1.0875l2.1121875 19.6809375c0.223125 10.9434375-2.304375 20.7675-9.376875 27.7125-6.943125 7.0715625-16.7353125 11.326875-27.5203125 11.071875l-19.711875-0.5128125c-0.384375 0-0.6403125-0.159375-1.0875-0.159375L87.565625 294.984375c-21.7275-0.5765625-39.7125-18.560625-40.25625-40.351875v-27.744375c3.29625-25.6640625 23.45625-39.0403125 45.151875-38.559375l148.704375-0.4809375L47.7584375-3.7359374999999773c-20.9925-21.05625-20.9925-55.2 0-76.288125z"  horiz-adv-x="1024" />

    
    <glyph glyph-name="ic_pause_px" unicode="&#59030;" d="M238.93333333 65.42222187000004h182.0444448V702.5777781300001h-182.0444448v-637.15555626z m364.08888854 637.15555626v-637.15555626h182.0444448V702.5777781300001h-182.0444448z"  horiz-adv-x="1024" />

    
    <glyph glyph-name="qunzhuhuangguan" unicode="&#59208;" d="M909.876 583.23c-61.749 0-111.265-50.098-111.265-111.265 0-13.981 2.913-27.379 7.573-40.195l-131.072-61.749-97.284 200.395c36.117 22.719 60.585 62.332 60.585 108.353 0 70.487-57.089 127.577-127.577 127.577s-127.577-57.089-127.577-127.577c0-46.604 25.050-87.381 62.332-109.518l-96.702-199.23-131.072 61.749c4.66 12.234 7.573 25.632 7.573 40.195 0 61.749-50.098 111.265-111.265 111.265-61.749 0-111.265-50.098-111.265-111.265 0-61.749 50.098-111.265 111.265-111.265h2.331l88.546-318.651h614l88.546 318.651h2.331c61.749 0 111.265 50.098 111.265 111.265 0.582 61.167-49.516 111.265-111.265 111.265z"  horiz-adv-x="1024" />

    
    <glyph glyph-name="bofang4" unicode="&#58919;" d="M512 896c-282.77 0-512-229.23-512-512s229.23-512 512-512c282.77 0 512 229.23 512 512-0.233 282.676-229.324 511.767-511.978 512zM512-87.040c-260.148 0-471.040 210.892-471.040 471.040 0 260.148 210.892 471.040 471.040 471.040 260.148 0 471.040-210.892 471.040-471.040-0.233-260.054-210.986-470.807-471.018-471.040zM389.12 179.2l327.68 204.8-327.68 204.8v-409.6z"  horiz-adv-x="1024" />

    
    <glyph glyph-name="zhiding" unicode="&#58880;" d="M512-105.785c-66.029 0-130.020 12.889-190.397 38.442-58.226 24.647-110.575 59.923-155.46 104.807s-80.16 97.232-104.807 155.46c-25.553 60.261-38.442 124.368-38.442 190.397 0 66.029 12.889 130.135 38.442 190.397 24.647 58.226 59.923 110.575 104.807 155.46s97.232 80.16 155.46 104.807c60.261 25.553 124.368 38.442 190.397 38.442 66.029 0 130.135-12.889 190.397-38.442 58.226-24.647 110.575-59.923 155.46-104.807s80.16-97.232 104.807-155.46c25.553-60.261 38.442-124.368 38.442-190.397 0-66.029-12.889-130.020-38.442-190.397-24.647-58.226-59.923-110.575-104.807-155.46s-97.232-80.16-155.46-104.807c-60.261-25.553-124.368-38.442-190.397-38.442zM512 820.418c-241.049 0-437.097-196.049-437.097-437.097s196.049-437.097 437.097-437.097c241.049 0 437.097 196.049 437.097 437.097s-196.049 437.097-437.097 437.097zM512 614.873l-231.553-231.553h173.663v-231.553h115.776v231.553h173.663l-231.553 231.553z"  horiz-adv-x="1024" />

    
    <glyph glyph-name="quanping" unicode="&#58906;" d="M615.395733125 488.9599996875a53.76 53.76 0 0 1 76.10666718750001 0l193.59999937499998 191.7866671875-1.2266662499999998-154.666666875c-0.5333334375-21.7600003125 16.8-40.746666562499996 38.506666875-40.2666665625h27.6799996875c21.706666875 0.5333334375 39.6799996875 13.546666875 40.2666665625 35.2533328125l1.066666875 282.4000003125c0 0.37333312500000004-1.44 0.6400003125-1.44 1.066666875l2.1333328125000004 19.7333334375c0.21333375000000002 10.933333125-2.293333125 20.6933334375-9.386666250000001 27.733333125a36.96 36.96 0 0 1-27.626666250000003 10.9866665625l-19.6266675-0.4266665625c-0.4266665625 0-0.69333375-0.16000031250000002-1.119999375-0.21333375000000002L653.0490668750001 864a41.5999996875 41.5999996875 0 0 1-40.2666665625-40.32v-27.733333125c3.3066665625000002-25.70666625 23.4666665625-40.693333125 45.1733334375-40.213333125l149.2266665625-0.5866668749999999-191.73333375-190.0266665625a53.866666875 53.866666875 0 0 1 0-76.16000062500001z m-204.90666656250002-209.919999375a53.706666562500004 53.706666562500004 0 0 1-76.1599996875 0l-193.6000003125-190.6133334375 1.2266671875000001 151.1466665625c0.48 21.86666625-16.8 40.800000000000004-38.506666875 40.2666665625H74.169066875c-21.7600003125-0.5333334375-39.733333125-13.4933334375-40.213333125-35.30666625l-1.1733337499999998-280.0000003125c0-0.37333312500000004 1.4933334375-0.6400003125 1.4933334375-1.066666875l-2.13333375-19.7333334375c-0.21333375000000002-10.933333125 2.293333125-20.8000003125 9.386667187499999-27.733333125 6.93333375-7.0399996875 16.7466665625-11.306666250000001 27.519999375-11.04l19.7333334375 0.5333334375 1.066666875 0.10666687500000001L370.64906656249997-96a41.76 41.76 0 0 1 40.2666665625 40.32v27.733333125c-3.253333125 25.70666625-23.4666665625 39.09333375-45.12 38.61333375l-148.8 0.48L410.54240000000004 202.66666687499992a54.0799996875 54.0799996875 0 0 1 0 76.2666665625z"  horiz-adv-x="1024" />

    
    <glyph glyph-name="zizhanghuguanli" unicode="&#58889;" d="M638.66-1.7999999999999545l-4.92 1.98-6.72 3.9a86.04 86.04 0 0 0-52.5 78.6v34.5c0 24.42 10.02 46.26 26.1 61.68 0 0 10.92 11.52 15.12 14.82 6.18 4.32 23.1 7.92 23.1 7.92a84.96 84.96 0 0 0 31.14 90.66 299.7 299.7 0 0 1-158.88 45.72H332.72c-165.66 0-300.48-135.18-300.48-301.26v-17.94c0-86.76 132.66-86.76 300.48-86.76h178.32c48 0 94.32 0 135.24 2.22a86.64 86.64 0 0 0-7.62 63.96zM413 361.02a238.56 238.56 0 0 1 237.9 238.62A238.5 238.5 0 0 1 413 838.32a238.68 238.68 0 0 1 0-477.3z m553.8-215.46a45.96 45.96 0 0 0-43.08 45.42c0 7.38 1.68 14.16 5.1 20.52a28.44 28.44 0 0 1-11.28 36.78l-15.36 9.12-14.7 8.52a28.62 28.62 0 0 1-37.44-8.52 44.4 44.4 0 0 0-37.92-20.46 44.4 44.4 0 0 0-37.8 20.46 28.62 28.62 0 0 1-37.38 8.52l-15.9-8.52-14.7-8.52a28.44 28.44 0 0 1-11.28-36.9 41.88 41.88 0 0 0 5.16-20.4 45.6 45.6 0 0 0-43.08-45.42v-0.66a27.96 27.96 0 0 1-26.1-28.2v-34.68c0-14.64 11.88-27.12 26.1-28.32l0.54-0.54a45.12 45.12 0 0 0 37.38-65.76 28.56 28.56 0 0 1 11.28-36.9l29.94-17.58a28.38 28.38 0 0 1 37.38 8.58 45 45 0 0 0 37.92 20.46c15.9 0 30.06-8.58 37.92-20.46a28.2 28.2 0 0 1 37.44-8.58l29.88 17.58a28.26 28.26 0 0 1 11.28 36.36s0 0.54-0.54 0.54c-0.54 0.48-0.54 1.2-1.2 1.68l-0.54 0.54a45.48 45.48 0 0 0 39.06 63l0.54 0.54a28.2 28.2 0 0 1 26.16 28.32v35.76c1.2 14.82-10.8 26.7-24.78 27.72z m-88.98-69.66a74.04 74.04 0 0 0-12.36-21.48c-10.2-11.94-24.9-20.94-41.28-23.76-3.9-0.54-8.58-1.2-12.48-1.2s-8.4 0.66-12.48 1.2a71.58 71.58 0 0 0-41.28 23.76 68.82 68.82 0 0 0-12.48 21.48 68.34 68.34 0 0 0-4.44 23.88c0 8.4 1.68 16.38 3.9 23.76 2.88 8.04 6.84 15.36 12.48 21.48 10.26 12.48 24.9 21.06 41.82 23.88 4.08 0.54 8.04 1.08 12.48 1.08 4.62 0 8.58-0.54 12.48-1.08 16.38-2.88 31.14-11.94 41.82-23.88 5.16-6.18 9.6-13.5 12.48-21.48 2.94-7.32 3.9-15.36 3.9-23.76 0-8.52-1.68-16.38-4.56-23.88z"  horiz-adv-x="1024" />

    
    <glyph glyph-name="quanbuyidu" unicode="&#58890;" d="M298.1842488888889-22.64405333333343a49.445546666666665 49.445546666666665 0 0 0-17.07008 3.0572088888888884 36.076657777777775 36.076657777777775 0 0 0-1.7328355555555552 0.6872177777777777L29.724444444444487 87.59296000000006c-18.495715555555556 7.889351111111111-27.09390222222222 29.278435555555557-19.203413333333334 47.77415111111111 7.889351111111111 18.495715555555556 29.28071111111111 27.09390222222222 47.77415111111111 19.203413333333334l227.97653333333335-97.24586666666666 318.60849777777776 702.9521066666665c8.300088888888888 18.315946666666665 29.880319999999998 26.43171555555556 48.190577777777776 18.132764444444444 18.315946666666665-8.301226666666667 26.43171555555556-29.878044444444445 18.132764444444444-48.191715555555554L343.92746666666665 8.1407999999999c-4.733155555555555-11.62808888888889-13.55662222222222-20.886186666666667-25.007217777777775-26.18709333333333-6.610488888888888-3.0594844444444442-13.662435555555554-4.59776-20.736-4.59776z m685.7375288888888 591.8105599999999h-212.78719999999998c-20.107946666666663 0-36.40888888888889 16.300942222222222-36.40888888888889 36.40888888888889s16.300942222222222 36.40888888888889 36.40888888888889 36.40888888888889h212.78833777777774c20.107946666666663 0 36.40888888888889-16.300942222222222 36.40888888888889-36.40888888888889s-16.30208-36.40888888888889-36.41002666666667-36.40888888888889z m0-392.16241777777776h-358.4227555555555c-20.107946666666663 0-36.40888888888889 16.300942222222222-36.40888888888889 36.40888888888889s16.300942222222222 36.40888888888889 36.40888888888889 36.40888888888889h358.42389333333335c20.107946666666663 0 36.40888888888889-16.300942222222222 36.40888888888889-36.40888888888889s-16.30208-36.40888888888889-36.41002666666667-36.40888888888889z m0 196.08120888888888h-278.7783111111111c-20.107946666666663 0-36.40888888888889 16.300942222222222-36.40888888888889 36.40888888888889s16.300942222222222 36.40888888888889 36.40888888888889 36.40888888888889h278.77944888888885c20.107946666666663 0 36.40888888888889-16.300942222222222 36.40888888888889-36.40888888888889s-16.30208-36.40888888888889-36.41002666666667-36.40888888888889z m0-392.1635555555556h-508.6094222222222c-20.107946666666663 0-36.40888888888889 16.300942222222222-36.40888888888889 36.40888888888889s16.300942222222222 36.40888888888889 36.40888888888889 36.40888888888889h508.6094222222222c20.107946666666663 0 36.40888888888889-16.300942222222222 36.40888888888889-36.40888888888889s-16.300942222222222-36.40888888888889-36.40888888888889-36.40888888888889z"  horiz-adv-x="1024" />

    
    <glyph glyph-name="bofang5" unicode="&#58951;" d="M702.9 381.4c0-7.1-3.5-13.2-8.7-17.4l0.2-0.3L445 205.6l-0.2 0.3c-3.9-3.1-8.6-5.2-13.9-5.2-12.5 0-22.7 10.1-22.7 22.6V539.6c0 12.5 10.1 22.6 22.7 22.6 5.3 0 10.1-2.1 13.9-5.2l0.2 0.3L694.4 399l-0.2-0.3c5.1-4.1 8.7-10.2 8.7-17.3m256.5 2.1c0 246.5-200.8 447-447.6 447S64.2 630 64.2 383.5s200.8-447 447.6-447 447.6 200.5 447.6 447z m-54.6 0c0-216.3-176.3-392.3-393-392.3s-393 176-393 392.3 176.3 392.3 393 392.3 393-176 393-392.3z"  horiz-adv-x="1024" />

    
    <glyph glyph-name="xuanzeshipinwenjian" unicode="&#58886;" d="M898.327273 663.272727H542.254545L512 705.163636c-30.254545 55.854545-39.563636 86.109091-86.109091 86.109091H125.672727c-46.545455 0-86.109091-39.563636-86.109091-86.109091v-644.654545c0-46.545455 39.563636-86.109091 86.109091-86.109091h772.654546c46.545455 0 86.109091 39.563636 86.109091 86.109091V577.163636c0 46.545455-39.563636 86.109091-86.109091 86.109091zM372.363636 158.254545V481.745455l279.272728-160.581819-279.272728-162.909091z"  horiz-adv-x="1024" />

    
    <glyph glyph-name="yiguanzhu" unicode="&#58896;" d="M894.643584 896H486.875586C224.696516 896 10.185004 681.488488 10.185004 419.309418v-70.621336c0-262.17657 214.511512-476.689332 476.690582-476.689332h407.767998c262.17782 0 476.690582 214.511512 476.690582 476.689332v70.621336C1371.332916 681.488488 1156.821404 896 894.643584 896z m441.376789-547.311918c0-243.377797-198.002742-441.380539-441.378039-441.380539H486.875586c-243.375297 0-441.378039 198.002742-441.378039 441.380539v70.621336c0 243.375297 198.002742 441.378039 441.378039 441.378039h407.767998c243.374047 0 441.378039-198.002742 441.378039-441.378039v-70.621336zM631.985763 258.240471l-1.235001 1.342502-124.400152 123.355151c-7.167509 7.172509-7.216259 18.778773-0.1075 26.005031 7.172509 7.168759 18.778773 7.217509 26.006281 0.107501l99.682622-98.853871 214.775262 214.762762c7.197509 7.148759 18.813773 7.148759 26.006282 0 7.148759-7.192509 7.148759-18.798773 0-25.991282L631.985763 258.240471z"  horiz-adv-x="1407" />

    


  </font>
</defs>
</svg>
